<?xml version="1.0" encoding="UTF-8"?>
<svg id="Layer_1" data-name="Layer 1" xmlns="http://www.w3.org/2000/svg" viewBox="0 0 100 100">
  <defs>
    <linearGradient id="whatsappGradient" x1="0%" y1="0%" x2="100%" y2="100%">
      <stop offset="0%" style="stop-color:#25D366"/>
      <stop offset="100%" style="stop-color:#128C7E"/>
    </linearGradient>
  </defs>
  <path fill="url(#whatsappGradient)" d="M29.5523,24.6995c1.7872-.4044,4.4141-.4394,5.78.8462.9489.8931,4.4217,9.3861,4.9846,11.1205,1.4102,4.3447-2.4815,5.6584-4.1068,9.1566,2.3333,5.0974,6.3208,9.5873,10.897,12.8436,1.624,1.1556,7.1636,4.613,8.8176,4.8928,3.2223.5451,5.7508-7.0901,8.1477-7.2176.799-.0425,11.6956,5.1295,12.661,5.8813,2.4137,1.8795-.5933,8.1443-2.6285,9.9582-6.7825,6.045-14.8826,3.512-22.2927.3243-11.9144-5.1254-31.2094-23.21-29.3115-37.2912.4375-3.2457,3.6445-9.7436,7.0515-10.5145Z"/>
  <path fill="url(#whatsappGradient)" d="M50.0001,100C22.4302,100,0,77.57,0,50S22.4302,0,50.0001,0s49.9999,22.43,49.9999,50-22.4299,50-49.9999,50ZM50.0001,8.823c-22.7052,0-41.1771,18.472-41.1771,41.177s18.472,41.177,41.1771,41.177,41.1769-18.472,41.1769-41.177S72.7053,8.823,50.0001,8.823Z"/>
</svg>
